<svg width="512" height="512" viewBox="0 0 512 512" style="color:#000000" xmlns="http://www.w3.org/2000/svg" class="h-full w-full"><rect width="512" height="512" x="0" y="0" rx="30" fill="transparent" stroke="transparent" stroke-width="0" stroke-opacity="100%" paint-order="stroke"></rect><svg width="256px" height="256px" viewBox="0 0 24 24" fill="#000000" x="128" y="128" role="img" style="display:inline-block;vertical-align:middle" xmlns="http://www.w3.org/2000/svg"><g fill="black"><g fill="currentColor"><path d="M17.5 12a5.485 5.485 0 0 1-1.725 4A5.481 5.481 0 0 1 12 17.5c-1.461 0-2.79-.57-3.775-1.5A5.485 5.485 0 0 1 6.5 12h11Z"/><path fill-rule="evenodd" d="M1 7a6 6 0 0 1 6-6h10a6 6 0 0 1 6 6v10a6 6 0 0 1-6 6H1V7Zm2.75 5a8.25 8.25 0 1 1 16.5 0a8.25 8.25 0 0 1-16.5 0Z" clip-rule="evenodd"/></g></g></svg></svg>